<svg xmlns="http://www.w3.org/2000/svg" width="1440" height="900"><path d="M799,405L711,354L748,513Z" fill="#12998f" stroke="#12998f" stroke-width="1.51"/><path d="M711,354L645,506L748,513Z" fill="#08998f" stroke="#08998f" stroke-width="1.51"/><path d="M711,354L591,355L645,506Z" fill="#19a79c" stroke="#19a79c" stroke-width="1.51"/><path d="M711,354L676,253L591,355Z" fill="#27b3a7" stroke="#27b3a7" stroke-width="1.51"/><path d="M898,249L676,253L711,354Z" fill="#2bada2" stroke="#2bada2" stroke-width="1.51"/><path d="M748,513L893,549L799,405Z" fill="#1f877e" stroke="#1f877e" stroke-width="1.51"/><path d="M799,693L893,549L748,513Z" fill="#2a766f" stroke="#2a766f" stroke-width="1.51"/><path d="M591,355L509,410L645,506Z" fill="#1eab9f" stroke="#1eab9f" stroke-width="1.51"/><path d="M436,245L509,410L591,355Z" fill="#33bfb3" stroke="#33bfb3" stroke-width="1.51"/><path d="M676,253L624,228L591,355Z" fill="#30bcb0" stroke="#30bcb0" stroke-width="1.51"/><path d="M893,549L1023,348L799,405Z" fill="#24867d" stroke="#24867d" stroke-width="1.51"/><path d="M799,405L898,249L711,354Z" fill="#28a196" stroke="#28a196" stroke-width="1.51"/><path d="M799,693L936,559L893,549Z" fill="#2e6d67" stroke="#2e6d67" stroke-width="1.51"/><path d="M1023,348L898,249L799,405Z" fill="#31948b" stroke="#31948b" stroke-width="1.51"/><path d="M676,253L775,126L624,228Z" fill="#35c2b5" stroke="#35c2b5" stroke-width="1.51"/><path d="M645,506L685,690L748,513Z" fill="#25867e" stroke="#25867e" stroke-width="1.51"/><path d="M546,681L685,690L645,506Z" fill="#2f837c" stroke="#2f837c" stroke-width="1.51"/><path d="M685,690L799,693L748,513Z" fill="#2a766f" stroke="#2a766f" stroke-width="1.51"/><path d="M509,410L450,532L645,506Z" fill="#26a69b" stroke="#26a69b" stroke-width="1.51"/><path d="M898,249L775,126L676,253Z" fill="#37b6aa" stroke="#37b6aa" stroke-width="1.51"/><path d="M1023,348L925,218L898,249Z" fill="#3a998f" stroke="#3a998f" stroke-width="1.51"/><path d="M450,532L546,681L645,506Z" fill="#31948b" stroke="#31948b" stroke-width="1.51"/><path d="M936,559L1023,348L893,549Z" fill="#2a7871" stroke="#2a7871" stroke-width="1.51"/><path d="M906,138L775,126L898,249Z" fill="#41b3a7" stroke="#41b3a7" stroke-width="1.51"/><path d="M685,690L679,755L799,693Z" fill="#2e6c66" stroke="#2e6c66" stroke-width="1.51"/><path d="M546,681L679,755L685,690Z" fill="#33746e" stroke="#33746e" stroke-width="1.51"/><path d="M428,177L436,245L624,228Z" fill="#44d4c6" stroke="#44d4c6" stroke-width="1.51"/><path d="M624,228L436,245L591,355Z" fill="#38c5b8" stroke="#38c5b8" stroke-width="1.51"/><path d="M509,410L366,419L450,532Z" fill="#2ab5a9" stroke="#2ab5a9" stroke-width="1.51"/><path d="M925,218L906,138L898,249Z" fill="#41a79d" stroke="#41a79d" stroke-width="1.51"/><path d="M1033,138L906,138L925,218Z" fill="#46a89d" stroke="#46a89d" stroke-width="1.51"/><path d="M546,681L547,808L679,755Z" fill="#38726b" stroke="#38726b" stroke-width="1.51"/><path d="M450,532L447,656L546,681Z" fill="#3a9289" stroke="#3a9289" stroke-width="1.51"/><path d="M353,587L447,656L450,532Z" fill="#3c9e94" stroke="#3c9e94" stroke-width="1.51"/><path d="M381,278L366,419L509,410Z" fill="#37c4b7" stroke="#37c4b7" stroke-width="1.51"/><path d="M936,559L1084,425L1023,348Z" fill="#2b7871" stroke="#2b7871" stroke-width="1.51"/><path d="M1023,348L1033,138L925,218Z" fill="#40998f" stroke="#40998f" stroke-width="1.51"/><path d="M1149,501L1084,425L936,559Z" fill="#2f6a64" stroke="#2f6a64" stroke-width="1.51"/><path d="M775,126L645,68L624,228Z" fill="#3ecdbf" stroke="#3ecdbf" stroke-width="1.51"/><path d="M711,-20L645,68L775,126Z" fill="#37c8bc" stroke="#37c8bc" stroke-width="1.51"/><path d="M436,245L381,278L509,410Z" fill="#3dcbbd" stroke="#3dcbbd" stroke-width="1.51"/><path d="M385,165L381,278L436,245Z" fill="#4bdccd" stroke="#4bdccd" stroke-width="1.51"/><path d="M799,693L1021,677L936,559Z" fill="#31615c" stroke="#31615c" stroke-width="1.51"/><path d="M1030,724L1021,677L799,693Z" fill="#325551" stroke="#325551" stroke-width="1.51"/><path d="M645,68L428,177L624,228Z" fill="#46d6c8" stroke="#46d6c8" stroke-width="1.51"/><path d="M679,755L806,818L799,693Z" fill="#30605b" stroke="#30605b" stroke-width="1.51"/><path d="M721,881L806,818L679,755Z" fill="#3d6c67" stroke="#3d6c67" stroke-width="1.51"/><path d="M317,538L353,587L450,532Z" fill="#3da99f" stroke="#3da99f" stroke-width="1.51"/><path d="M433,814L547,808L546,681Z" fill="#3e7670" stroke="#3e7670" stroke-width="1.51"/><path d="M433,814L546,681L447,656Z" fill="#3f827b" stroke="#3f827b" stroke-width="1.51"/><path d="M227,534L317,538L366,419Z" fill="#3cbbaf" stroke="#3cbbaf" stroke-width="1.51"/><path d="M366,419L317,538L450,532Z" fill="#36b4a8" stroke="#36b4a8" stroke-width="1.51"/><path d="M906,138L828,29L775,126Z" fill="#43bbaf" stroke="#43bbaf" stroke-width="1.51"/><path d="M806,818L1030,724L799,693Z" fill="#325551" stroke="#325551" stroke-width="1.51"/><path d="M1021,677L1149,501L936,559Z" fill="#315f5a" stroke="#315f5a" stroke-width="1.51"/><path d="M906,138L944,-15L828,29Z" fill="#43b1a7" stroke="#43b1a7" stroke-width="1.51"/><path d="M1165,248L1033,138L1023,348Z" fill="#428e86" stroke="#428e86" stroke-width="1.51"/><path d="M1084,425L1165,248L1023,348Z" fill="#397e76" stroke="#397e76" stroke-width="1.51"/><path d="M1140,649L1149,501L1021,677Z" fill="#32524f" stroke="#32524f" stroke-width="1.51"/><path d="M381,278L239,339L366,419Z" fill="#42d1c4" stroke="#42d1c4" stroke-width="1.51"/><path d="M428,177L385,165L436,245Z" fill="#4ee0d1" stroke="#4ee0d1" stroke-width="1.51"/><path d="M435,54L385,165L428,177Z" fill="#56eada" stroke="#56eada" stroke-width="1.51"/><path d="M1006,872L1061,799L1030,724Z" fill="#374644" stroke="#374644" stroke-width="1.51"/><path d="M638,924L721,881L679,755Z" fill="#497d77" stroke="#497d77" stroke-width="1.51"/><path d="M828,29L711,-20L775,126Z" fill="#3ac0b5" stroke="#3ac0b5" stroke-width="1.51"/><path d="M645,68L435,54L428,177Z" fill="#4de0d2" stroke="#4de0d2" stroke-width="1.51"/><path d="M711,-20L593,-4L645,68Z" fill="#39cbc0" stroke="#39cbc0" stroke-width="1.51"/><path d="M1030,724L1140,649L1021,677Z" fill="#324b47" stroke="#324b47" stroke-width="1.51"/><path d="M288,779L447,656L353,587Z" fill="#45958c" stroke="#45958c" stroke-width="1.51"/><path d="M288,779L433,814L447,656Z" fill="#46847e" stroke="#46847e" stroke-width="1.51"/><path d="M547,808L638,924L679,755Z" fill="#467b75" stroke="#467b75" stroke-width="1.51"/><path d="M593,-4L435,54L645,68Z" fill="#43d7cb" stroke="#43d7cb" stroke-width="1.51"/><path d="M1243,375L1165,248L1084,425Z" fill="#3a756e" stroke="#3a756e" stroke-width="1.51"/><path d="M1243,375L1084,425L1149,501Z" fill="#316964" stroke="#316964" stroke-width="1.51"/><path d="M231,132L381,278L385,165Z" fill="#56eada" stroke="#56eada" stroke-width="1.51"/><path d="M171,235L239,339L381,278Z" fill="#50e2d3" stroke="#50e2d3" stroke-width="1.51"/><path d="M602,1014L638,924L513,1007Z" fill="#75aea7" stroke="#75aea7" stroke-width="1.51"/><path d="M1006,872L1030,724L806,818Z" fill="#3a514e" stroke="#3a514e" stroke-width="1.51"/><path d="M1030,724L1198,728L1140,649Z" fill="#32423f" stroke="#32423f" stroke-width="1.51"/><path d="M1006,872L806,818L869,950Z" fill="#4d6d68" stroke="#4d6d68" stroke-width="1.51"/><path d="M1033,138L944,-15L906,138Z" fill="#48aba1" stroke="#48aba1" stroke-width="1.51"/><path d="M828,29L751,-103L711,-20Z" fill="#33bcb3" stroke="#33bcb3" stroke-width="1.51"/><path d="M1069,9L944,-15L1033,138Z" fill="#48a19a" stroke="#48a19a" stroke-width="1.51"/><path d="M1165,248L1155,174L1033,138Z" fill="#499189" stroke="#499189" stroke-width="1.51"/><path d="M317,538L219,675L353,587Z" fill="#46a89e" stroke="#46a89e" stroke-width="1.51"/><path d="M239,339L227,534L366,419Z" fill="#3ccabc" stroke="#3ccabc" stroke-width="1.51"/><path d="M1218,628L1224,526L1149,501Z" fill="#32524e" stroke="#32524e" stroke-width="1.51"/><path d="M1165,248L1230,265L1155,174Z" fill="#46847c" stroke="#46847c" stroke-width="1.51"/><path d="M1218,628L1149,501L1140,649Z" fill="#324e4b" stroke="#324e4b" stroke-width="1.51"/><path d="M869,950L806,818L721,881Z" fill="#4f7973" stroke="#4f7973" stroke-width="1.51"/><path d="M1224,526L1243,375L1149,501Z" fill="#315f59" stroke="#315f59" stroke-width="1.51"/><path d="M1198,728L1030,724L1061,799Z" fill="#313d3b" stroke="#313d3b" stroke-width="1.51"/><path d="M1198,728L1218,628L1140,649Z" fill="#31403f" stroke="#31403f" stroke-width="1.51"/><path d="M1224,526L1312,495L1243,375Z" fill="#3b6a64" stroke="#3b6a64" stroke-width="1.51"/><path d="M1243,375L1230,265L1165,248Z" fill="#417872" stroke="#417872" stroke-width="1.51"/><path d="M747,1041L869,950L721,881Z" fill="#63928b" stroke="#63928b" stroke-width="1.51"/><path d="M711,-20L640,-186L593,-4Z" fill="#31c6bd" stroke="#31c6bd" stroke-width="1.51"/><path d="M593,-4L435,-114L435,54Z" fill="#45dacf" stroke="#45dacf" stroke-width="1.51"/><path d="M832,-180L751,-103L828,29Z" fill="#32b3ac" stroke="#32b3ac" stroke-width="1.51"/><path d="M944,-15L832,-180L828,29Z" fill="#39aea7" stroke="#39aea7" stroke-width="1.51"/><path d="M1155,174L1069,9L1033,138Z" fill="#4e9d94" stroke="#4e9d94" stroke-width="1.51"/><path d="M1223,111L1069,9L1155,174Z" fill="#4f958d" stroke="#4f958d" stroke-width="1.51"/><path d="M513,1007L638,924L547,808Z" fill="#629a93" stroke="#629a93" stroke-width="1.51"/><path d="M219,675L288,779L353,587Z" fill="#4b9b92" stroke="#4b9b92" stroke-width="1.51"/><path d="M227,534L219,675L317,538Z" fill="#48b0a5" stroke="#48b0a5" stroke-width="1.51"/><path d="M1194,885L1198,728L1061,799Z" fill="#373c3a" stroke="#373c3a" stroke-width="1.51"/><path d="M1006,872L1131,896L1061,799Z" fill="#455351" stroke="#455351" stroke-width="1.51"/><path d="M869,950L888,977L1006,872Z" fill="#5c7a76" stroke="#5c7a76" stroke-width="1.51"/><path d="M747,1041L888,977L869,950Z" fill="#6c9590" stroke="#6c9590" stroke-width="1.51"/><path d="M435,54L231,132L385,165Z" fill="#5cf2e1" stroke="#5cf2e1" stroke-width="1.51"/><path d="M16,354L81,568L227,534Z" fill="#3abfb5" stroke="#3abfb5" stroke-width="1.51"/><path d="M227,534L81,568L219,675Z" fill="#47aea4" stroke="#47aea4" stroke-width="1.51"/><path d="M309,-48L231,132L435,54Z" fill="#59f0e2" stroke="#59f0e2" stroke-width="1.51"/><path d="M231,132L171,235L381,278Z" fill="#59eddd" stroke="#59eddd" stroke-width="1.51"/><path d="M638,924L747,1041L721,881Z" fill="#629891" stroke="#629891" stroke-width="1.51"/><path d="M418,953L547,808L433,814Z" fill="#59938c" stroke="#59938c" stroke-width="1.51"/><path d="M1421,353L1373,210L1230,265Z" fill="#5c968e" stroke="#5c968e" stroke-width="1.51"/><path d="M1327,615L1312,495L1224,526Z" fill="#40615e" stroke="#40615e" stroke-width="1.51"/><path d="M1327,615L1224,526L1218,628Z" fill="#3b5451" stroke="#3b5451" stroke-width="1.51"/><path d="M1230,265L1223,111L1155,174Z" fill="#4b8880" stroke="#4b8880" stroke-width="1.51"/><path d="M1373,210L1223,111L1230,265Z" fill="#57938c" stroke="#57938c" stroke-width="1.51"/><path d="M328,930L418,953L433,814Z" fill="#6aa79f" stroke="#6aa79f" stroke-width="1.51"/><path d="M219,675L217,759L288,779Z" fill="#50958d" stroke="#50958d" stroke-width="1.51"/><path d="M66,642L217,759L219,675Z" fill="#4d9b94" stroke="#4d9b94" stroke-width="1.51"/><path d="M328,930L433,814L288,779Z" fill="#5d9991" stroke="#5d9991" stroke-width="1.51"/><path d="M602,1014L747,1041L638,924Z" fill="#72aaa3" stroke="#72aaa3" stroke-width="1.51"/><path d="M602,1014L364,1017L747,1041Z" fill="#82bdb5" stroke="#82bdb5" stroke-width="1.51"/><path d="M418,953L513,1007L547,808Z" fill="#6aa59c" stroke="#6aa59c" stroke-width="1.51"/><path d="M1074,979L1131,896L1006,872Z" fill="#556361" stroke="#556361" stroke-width="1.51"/><path d="M1198,728L1327,615L1218,628Z" fill="#384745" stroke="#384745" stroke-width="1.51"/><path d="M1074,979L1006,872L1026,1026Z" fill="#617471" stroke="#617471" stroke-width="1.51"/><path d="M640,-186L435,-114L593,-4Z" fill="#37cec5" stroke="#37cec5" stroke-width="1.51"/><path d="M751,-103L640,-186L711,-20Z" fill="#27bfb7" stroke="#27bfb7" stroke-width="1.51"/><path d="M969,-144L832,-180L944,-15Z" fill="#38a59f" stroke="#38a59f" stroke-width="1.51"/><path d="M969,-144L944,-15L1069,9Z" fill="#419f99" stroke="#419f99" stroke-width="1.51"/><path d="M832,-180L640,-186L751,-103Z" fill="#22b7b1" stroke="#22b7b1" stroke-width="1.51"/><path d="M1055,-158L969,-144L1069,9Z" fill="#3f9893" stroke="#3f9893" stroke-width="1.51"/><path d="M1310,782L1327,615L1198,728Z" fill="#3c4543" stroke="#3c4543" stroke-width="1.51"/><path d="M227,884L328,930L288,779Z" fill="#68a79e" stroke="#68a79e" stroke-width="1.51"/><path d="M418,953L364,1017L513,1007Z" fill="#83c1b8" stroke="#83c1b8" stroke-width="1.51"/><path d="M34,149L98,268L171,235Z" fill="#53eadc" stroke="#53eadc" stroke-width="1.51"/><path d="M435,-114L309,-48L435,54Z" fill="#4ce3d8" stroke="#4ce3d8" stroke-width="1.51"/><path d="M1223,111L1180,-10L1069,9Z" fill="#4b908a" stroke="#4b908a" stroke-width="1.51"/><path d="M171,235L98,268L239,339Z" fill="#4fe3d5" stroke="#4fe3d5" stroke-width="1.51"/><path d="M34,149L171,235L231,132Z" fill="#5cf3e5" stroke="#5cf3e5" stroke-width="1.51"/><path d="M1131,896L1194,885L1061,799Z" fill="#454d4c" stroke="#454d4c" stroke-width="1.51"/><path d="M1026,1026L1006,872L888,977Z" fill="#627b77" stroke="#627b77" stroke-width="1.51"/><path d="M309,-48L203,48L231,132Z" fill="#5ff8ea" stroke="#5ff8ea" stroke-width="1.51"/><path d="M1222,1000L1194,885L1131,896Z" fill="#565a59" stroke="#565a59" stroke-width="1.51"/><path d="M16,354L227,534L239,339Z" fill="#3ecec2" stroke="#3ecec2" stroke-width="1.51"/><path d="M217,759L227,884L288,779Z" fill="#5b9991" stroke="#5b9991" stroke-width="1.51"/><path d="M1074,979L1222,1000L1131,896Z" fill="#5f6866" stroke="#5f6866" stroke-width="1.51"/><path d="M747,1041L1026,1026L888,977Z" fill="#739692" stroke="#739692" stroke-width="1.51"/><path d="M13,812L227,884L217,759Z" fill="#5b9a93" stroke="#5b9a93" stroke-width="1.51"/><path d="M1180,-10L1055,-158L1069,9Z" fill="#44928d" stroke="#44928d" stroke-width="1.51"/><path d="M969,-144L1055,-158L832,-180Z" fill="#379d99" stroke="#379d99" stroke-width="1.51"/><path d="M309,-48L191,-78L203,48Z" fill="#5af5e8" stroke="#5af5e8" stroke-width="1.51"/><path d="M435,-114L343,-131L309,-48Z" fill="#49e3d9" stroke="#49e3d9" stroke-width="1.51"/><path d="M640,-186L343,-131L435,-114Z" fill="#3bd4cc" stroke="#3bd4cc" stroke-width="1.51"/><path d="M1194,885L1310,782L1198,728Z" fill="#383939" stroke="#383939" stroke-width="1.51"/><path d="M170,1031L364,1017L328,930Z" fill="#8ed0c7" stroke="#8ed0c7" stroke-width="1.51"/><path d="M328,930L364,1017L418,953Z" fill="#80c0b7" stroke="#80c0b7" stroke-width="1.51"/><path d="M513,1007L364,1017L602,1014Z" fill="#84c1b9" stroke="#84c1b9" stroke-width="1.51"/><path d="M1223,111L1334,22L1180,-10Z" fill="#54938d" stroke="#54938d" stroke-width="1.51"/><path d="M1180,-10L1244,-150L1055,-158Z" fill="#438785" stroke="#438785" stroke-width="1.51"/><path d="M1421,353L1230,265L1243,375Z" fill="#4d847e" stroke="#4d847e" stroke-width="1.51"/><path d="M1421,353L1243,375L1312,495Z" fill="#4b7f79" stroke="#4b7f79" stroke-width="1.51"/><path d="M1421,353L1312,495L1474,426Z" fill="#578c86" stroke="#578c86" stroke-width="1.51"/><path d="M81,568L66,642L219,675Z" fill="#47a59c" stroke="#47a59c" stroke-width="1.51"/><path d="M0,542L66,642L81,568Z" fill="#41aba3" stroke="#41aba3" stroke-width="1.51"/><path d="M1474,426L1312,495L1497,615Z" fill="#5a837d" stroke="#5a837d" stroke-width="1.51"/><path d="M98,268L16,354L239,339Z" fill="#47dbce" stroke="#47dbce" stroke-width="1.51"/><path d="M-32,271L16,354L98,268Z" fill="#45dacf" stroke="#45dacf" stroke-width="1.51"/><path d="M16,354L0,542L81,568Z" fill="#36bcb2" stroke="#36bcb2" stroke-width="1.51"/><path d="M1397,105L1334,22L1223,111Z" fill="#64a49d" stroke="#64a49d" stroke-width="1.51"/><path d="M1397,105L1223,111L1373,210Z" fill="#68a79e" stroke="#68a79e" stroke-width="1.51"/><path d="M203,48L34,149L231,132Z" fill="#61faeb" stroke="#61faeb" stroke-width="1.51"/><path d="M343,-131L191,-78L309,-48Z" fill="#51ece1" stroke="#51ece1" stroke-width="1.51"/><path d="M42,-5L34,149L203,48Z" fill="#5af5e8" stroke="#5af5e8" stroke-width="1.51"/><path d="M1532,158L1397,105L1373,210Z" fill="#7abcb2" stroke="#7abcb2" stroke-width="1.51"/><path d="M1421,353L1529,271L1373,210Z" fill="#6eaaa2" stroke="#6eaaa2" stroke-width="1.51"/><path d="M1497,615L1312,495L1327,615Z" fill="#506e6a" stroke="#506e6a" stroke-width="1.51"/><path d="M1194,885L1403,929L1310,782Z" fill="#565857" stroke="#565857" stroke-width="1.51"/><path d="M1310,782L1497,615L1327,615Z" fill="#4e5d5b" stroke="#4e5d5b" stroke-width="1.51"/><path d="M1026,1026L1222,1000L1074,979Z" fill="#6c7876" stroke="#6c7876" stroke-width="1.51"/><path d="M34,149L-32,271L98,268Z" fill="#4fe5d9" stroke="#4fe5d9" stroke-width="1.51"/><path d="M-104,442L-76,596L0,542Z" fill="#36b1a9" stroke="#36b1a9" stroke-width="1.51"/><path d="M1372,-184L1244,-150L1334,22Z" fill="#5a9a96" stroke="#5a9a96" stroke-width="1.51"/><path d="M1334,22L1244,-150L1180,-10Z" fill="#508f8b" stroke="#508f8b" stroke-width="1.51"/><path d="M1055,-158L1372,-184L832,-180Z" fill="#3d8d8a" stroke="#3d8d8a" stroke-width="1.51"/><path d="M1551,812L1497,615L1310,782Z" fill="#59615f" stroke="#59615f" stroke-width="1.51"/><path d="M227,884L170,1031L328,930Z" fill="#84c6bd" stroke="#84c6bd" stroke-width="1.51"/><path d="M66,642L13,812L217,759Z" fill="#4b918a" stroke="#4b918a" stroke-width="1.51"/><path d="M-76,596L-8,764L66,642Z" fill="#449993" stroke="#449993" stroke-width="1.51"/><path d="M-76,596L66,642L0,542Z" fill="#3fa7a0" stroke="#3fa7a0" stroke-width="1.51"/><path d="M-8,764L13,812L66,642Z" fill="#488e88" stroke="#488e88" stroke-width="1.51"/><path d="M191,-78L42,-5L203,48Z" fill="#57f2e7" stroke="#57f2e7" stroke-width="1.51"/><path d="M34,149L-86,178L-32,271Z" fill="#4fe8dc" stroke="#4fe8dc" stroke-width="1.51"/><path d="M1474,426L1529,271L1421,353Z" fill="#6da69f" stroke="#6da69f" stroke-width="1.51"/><path d="M1497,615L1533,486L1474,426Z" fill="#67928d" stroke="#67928d" stroke-width="1.51"/><path d="M108,1001L170,1031L227,884Z" fill="#89ccc4" stroke="#89ccc4" stroke-width="1.51"/><path d="M364,1017L170,1031L747,1041Z" fill="#8fcec5" stroke="#8fcec5" stroke-width="1.51"/><path d="M-104,442L0,542L16,354Z" fill="#2cc1b8" stroke="#2cc1b8" stroke-width="1.51"/><path d="M1397,105L1512,15L1334,22Z" fill="#76b7b0" stroke="#76b7b0" stroke-width="1.51"/><path d="M1605,362L1529,271L1474,426Z" fill="#79b3ab" stroke="#79b3ab" stroke-width="1.51"/><path d="M-179,381L-104,442L-32,271Z" fill="#34cac2" stroke="#34cac2" stroke-width="1.51"/><path d="M-32,271L-104,442L16,354Z" fill="#39cfc5" stroke="#39cfc5" stroke-width="1.51"/><path d="M64,961L108,1001L227,884Z" fill="#81c3bb" stroke="#81c3bb" stroke-width="1.51"/><path d="M1222,1000L1403,929L1194,885Z" fill="#646766" stroke="#646766" stroke-width="1.51"/><path d="M13,812L64,961L227,884Z" fill="#6caea7" stroke="#6caea7" stroke-width="1.51"/><path d="M-96,851L64,961L13,812Z" fill="#65a6a1" stroke="#65a6a1" stroke-width="1.51"/><path d="M-96,851L13,812L-8,764Z" fill="#51908c" stroke="#51908c" stroke-width="1.51"/><path d="M-100,9L-86,178L34,149Z" fill="#56f2e6" stroke="#56f2e6" stroke-width="1.51"/><path d="M1529,271L1532,158L1373,210Z" fill="#7dbcb3" stroke="#7dbcb3" stroke-width="1.51"/><path d="M1644,228L1532,158L1529,271Z" fill="#8ecfc6" stroke="#8ecfc6" stroke-width="1.51"/><path d="M1533,486L1605,362L1474,426Z" fill="#71a9a1" stroke="#71a9a1" stroke-width="1.51"/><path d="M1497,615L1587,559L1533,486Z" fill="#6e928d" stroke="#6e928d" stroke-width="1.51"/><path d="M1595,627L1587,559L1497,615Z" fill="#718e8a" stroke="#718e8a" stroke-width="1.51"/><path d="M42,-5L-100,9L34,149Z" fill="#53efe5" stroke="#53efe5" stroke-width="1.51"/><path d="M191,-78L92,-173L42,-5Z" fill="#4eece3" stroke="#4eece3" stroke-width="1.51"/><path d="M343,-131L92,-173L191,-78Z" fill="#50eee4" stroke="#50eee4" stroke-width="1.51"/><path d="M640,-186L92,-173L343,-131Z" fill="#43dfd7" stroke="#43dfd7" stroke-width="1.51"/><path d="M1703,506L1605,362L1533,486Z" fill="#7db5ad" stroke="#7db5ad" stroke-width="1.51"/><path d="M1403,929L1494,884L1310,782Z" fill="#686b6a" stroke="#686b6a" stroke-width="1.51"/><path d="M1570,768L1595,627L1497,615Z" fill="#6e807d" stroke="#6e807d" stroke-width="1.51"/><path d="M1587,559L1703,506L1533,486Z" fill="#7ba7a2" stroke="#7ba7a2" stroke-width="1.51"/><path d="M1532,158L1512,15L1397,105Z" fill="#85c8c0" stroke="#85c8c0" stroke-width="1.51"/><path d="M1656,157L1512,15L1532,158Z" fill="#98dcd3" stroke="#98dcd3" stroke-width="1.51"/><path d="M1244,-150L1372,-184L1055,-158Z" fill="#448282" stroke="#448282" stroke-width="1.51"/><path d="M832,-180L1372,-184L640,-186Z" fill="#359d99" stroke="#359d99" stroke-width="1.51"/><path d="M1441,-127L1372,-184L1334,22Z" fill="#67a8a4" stroke="#67a8a4" stroke-width="1.51"/><path d="M-216,270L-179,381L-32,271Z" fill="#39d2c9" stroke="#39d2c9" stroke-width="1.51"/><path d="M-104,442L-197,506L-76,596Z" fill="#30b0aa" stroke="#30b0aa" stroke-width="1.51"/><path d="M-169,678L-96,851L-8,764Z" fill="#458582" stroke="#458582" stroke-width="1.51"/><path d="M1494,884L1551,812L1310,782Z" fill="#666a68" stroke="#666a68" stroke-width="1.51"/><path d="M1551,812L1570,768L1497,615Z" fill="#697371" stroke="#697371" stroke-width="1.51"/><path d="M1512,15L1441,-127L1334,22Z" fill="#74b6b0" stroke="#74b6b0" stroke-width="1.51"/><path d="M64,961L-45,1014L108,1001Z" fill="#8acec8" stroke="#8acec8" stroke-width="1.51"/><path d="M-169,678L-8,764L-76,596Z" fill="#41948f" stroke="#41948f" stroke-width="1.51"/><path d="M-179,381L-197,506L-104,442Z" fill="#22bcb5" stroke="#22bcb5" stroke-width="1.51"/><path d="M-197,506L-169,678L-76,596Z" fill="#38a19c" stroke="#38a19c" stroke-width="1.51"/><path d="M-72,-156L-100,9L42,-5Z" fill="#49e7e0" stroke="#49e7e0" stroke-width="1.51"/><path d="M-86,178L-216,270L-32,271Z" fill="#44ded4" stroke="#44ded4" stroke-width="1.51"/><path d="M1512,15L1677,-127L1441,-127Z" fill="#88cbc7" stroke="#88cbc7" stroke-width="1.51"/><path d="M1605,362L1644,228L1529,271Z" fill="#8bcac1" stroke="#8bcac1" stroke-width="1.51"/><path d="M1713,298L1644,228L1605,362Z" fill="#97d6cd" stroke="#97d6cd" stroke-width="1.51"/><path d="M1222,1000L1424,1068L1403,929Z" fill="#848888" stroke="#848888" stroke-width="1.51"/><path d="M1403,929L1424,1068L1494,884Z" fill="#8a8f8e" stroke="#8a8f8e" stroke-width="1.51"/><path d="M1673,920L1704,829L1551,812Z" fill="#939896" stroke="#939896" stroke-width="1.51"/><path d="M1026,1026L1424,1068L1222,1000Z" fill="#757978" stroke="#757978" stroke-width="1.51"/><path d="M1500,1090L1424,1068L1026,1026Z" fill="#909594" stroke="#909594" stroke-width="1.51"/><path d="M1500,1090L1026,1026L747,1041Z" fill="#7b8a87" stroke="#7b8a87" stroke-width="1.51"/><path d="M-179,381L-216,270L-197,506Z" fill="#29c3bd" stroke="#29c3bd" stroke-width="1.51"/><path d="M-243,137L-216,270L-86,178Z" fill="#47e2d9" stroke="#47e2d9" stroke-width="1.51"/><path d="M-150,846L-45,1014L-96,851Z" fill="#6aaba8" stroke="#6aaba8" stroke-width="1.51"/><path d="M-96,851L-45,1014L64,961Z" fill="#78bbb6" stroke="#78bbb6" stroke-width="1.51"/><path d="M108,1001L-45,1014L170,1031Z" fill="#93d7d0" stroke="#93d7d0" stroke-width="1.51"/><path d="M-234,822L-150,846L-169,678Z" fill="#448280" stroke="#448280" stroke-width="1.51"/><path d="M-169,678L-150,846L-96,851Z" fill="#488785" stroke="#488785" stroke-width="1.51"/><path d="M1644,228L1656,157L1532,158Z" fill="#9bdfd4" stroke="#9bdfd4" stroke-width="1.51"/><path d="M1713,298L1656,157L1644,228Z" fill="#a2e4db" stroke="#a2e4db" stroke-width="1.51"/><path d="M1595,627L1703,506L1587,559Z" fill="#7fa39e" stroke="#7fa39e" stroke-width="1.51"/><path d="M1716,661L1703,506L1595,627Z" fill="#86a6a1" stroke="#86a6a1" stroke-width="1.51"/><path d="M1716,661L1595,627L1570,768Z" fill="#7c8d8a" stroke="#7c8d8a" stroke-width="1.51"/><path d="M1716,661L1570,768L1704,829Z" fill="#808786" stroke="#808786" stroke-width="1.51"/><path d="M-100,9L-243,137L-86,178Z" fill="#50eee4" stroke="#50eee4" stroke-width="1.51"/><path d="M92,-173L-72,-156L42,-5Z" fill="#46e7df" stroke="#46e7df" stroke-width="1.51"/><path d="M1738,404L1713,298L1605,362Z" fill="#96d3cb" stroke="#96d3cb" stroke-width="1.51"/><path d="M-216,270L-234,822L-197,506Z" fill="#2da9a5" stroke="#2da9a5" stroke-width="1.51"/><path d="M-226,-60L-243,137L-100,9Z" fill="#47e7e0" stroke="#47e7e0" stroke-width="1.51"/><path d="M1703,506L1738,404L1605,362Z" fill="#8ec8c0" stroke="#8ec8c0" stroke-width="1.51"/><path d="M1424,1068L1500,1090L1494,884Z" fill="#a0a7a5" stroke="#a0a7a5" stroke-width="1.51"/><path d="M-188,1084L1500,1090L747,1041Z" fill="#87c1b9" stroke="#87c1b9" stroke-width="1.51"/><path d="M1704,829L1570,768L1551,812Z" fill="#7d8280" stroke="#7d8280" stroke-width="1.51"/><path d="M1703,506L1716,661L1738,404Z" fill="#8cb8b2" stroke="#8cb8b2" stroke-width="1.51"/><path d="M-197,506L-234,822L-169,678Z" fill="#3c918f" stroke="#3c918f" stroke-width="1.51"/><path d="M-150,846L-188,1084L-45,1014Z" fill="#81c3c0" stroke="#81c3c0" stroke-width="1.51"/><path d="M-243,137L-234,822L-216,270Z" fill="#22beb8" stroke="#22beb8" stroke-width="1.51"/><path d="M1673,920L1551,812L1494,884Z" fill="#8a908e" stroke="#8a908e" stroke-width="1.51"/><path d="M1716,661L1757,923L1738,404Z" fill="#899e9a" stroke="#899e9a" stroke-width="1.51"/><path d="M1656,157L1677,-23L1512,15Z" fill="#9ee3db" stroke="#9ee3db" stroke-width="1.51"/><path d="M1441,-127L1677,-127L1372,-184Z" fill="#7abdbb" stroke="#7abdbb" stroke-width="1.51"/><path d="M1764,100L1677,-23L1656,157Z" fill="#b0f7ed" stroke="#b0f7ed" stroke-width="1.51"/><path d="M1764,100L1656,157L1713,298Z" fill="#abf0e6" stroke="#abf0e6" stroke-width="1.51"/><path d="M1617,1040L1673,920L1494,884Z" fill="#a5acaa" stroke="#a5acaa" stroke-width="1.51"/><path d="M-72,-156L-226,-60L-100,9Z" fill="#41e3de" stroke="#41e3de" stroke-width="1.51"/><path d="M1500,1090L1617,1040L1494,884Z" fill="#abb2b0" stroke="#abb2b0" stroke-width="1.51"/><path d="M-72,-156L-167,-185L-226,-60Z" fill="#39dedb" stroke="#39dedb" stroke-width="1.51"/><path d="M92,-173L-167,-185L-72,-156Z" fill="#3ce0dc" stroke="#3ce0dc" stroke-width="1.51"/><path d="M640,-186L-167,-185L92,-173Z" fill="#4ae9e1" stroke="#4ae9e1" stroke-width="1.51"/><path d="M1757,923L1764,100L1738,404Z" fill="#8dc1ba" stroke="#8dc1ba" stroke-width="1.51"/><path d="M1738,404L1764,100L1713,298Z" fill="#a2e3d9" stroke="#a2e3d9" stroke-width="1.51"/><path d="M1746,-16L1677,-127L1677,-23Z" fill="#a8eee8" stroke="#a8eee8" stroke-width="1.51"/><path d="M1677,-23L1677,-127L1512,15Z" fill="#99dfd9" stroke="#99dfd9" stroke-width="1.51"/><path d="M1764,100L1746,-16L1677,-23Z" fill="#acf3eb" stroke="#acf3eb" stroke-width="1.51"/><path d="M170,1031L-188,1084L747,1041Z" fill="#a4e9df" stroke="#a4e9df" stroke-width="1.51"/><path d="M-45,1014L-188,1084L170,1031Z" fill="#97dcd6" stroke="#97dcd6" stroke-width="1.51"/><path d="M-234,822L-188,1084L-150,846Z" fill="#6bacaa" stroke="#6bacaa" stroke-width="1.51"/><path d="M1704,829L1757,923L1716,661Z" fill="#8e9392" stroke="#8e9392" stroke-width="1.51"/><path d="M1673,920L1757,923L1704,829Z" fill="#a7aead" stroke="#a7aead" stroke-width="1.51"/><path d="M1736,1024L1757,923L1673,920Z" fill="#bbc3c1" stroke="#bbc3c1" stroke-width="1.51"/><path d="M1617,1040L1736,1024L1673,920Z" fill="#c4cdcb" stroke="#c4cdcb" stroke-width="1.51"/><path d="M1500,1090L1736,1024L1617,1040Z" fill="#cad3d0" stroke="#cad3d0" stroke-width="1.51"/><path d="M1764,100L1757,-171L1746,-16Z" fill="#a9f0e9" stroke="#a9f0e9" stroke-width="1.51"/><path d="M1746,-16L1757,-171L1677,-127Z" fill="#a5ebe6" stroke="#a5ebe6" stroke-width="1.51"/><path d="M1677,-127L1757,-171L1372,-184Z" fill="#8fd4d0" stroke="#8fd4d0" stroke-width="1.51"/></svg>